<svg width="1024" height="1024" viewBox="0 0 1024 1024" fill="none" xmlns="http://www.w3.org/2000/svg">
  <rect x="74" y="74" width="876" height="876" rx="214" fill="#FFFFFF"/>
  <rect x="74" y="74" width="876" height="876" rx="214" stroke="#E8EDF6" stroke-width="10"/>

  <rect x="210" y="198" width="604" height="470" rx="116" fill="#FFFFFF" stroke="#D8E4F8" stroke-width="20"/>
  <path d="M210 326C210 270.772 254.772 226 310 226H714C769.228 226 814 270.772 814 326V360H210V326Z" fill="#FFFFFF"/>
  <path d="M226 360H798" stroke="#D8E4F8" stroke-width="18" stroke-linecap="round"/>
  <rect x="296" y="150" width="30" height="116" rx="15" fill="#2563EB"/>
  <rect x="698" y="150" width="30" height="116" rx="15" fill="#2563EB"/>

  <circle cx="512" cy="542" r="154" fill="#FFFFFF" stroke="#2563EB" stroke-width="24"/>
  <path d="M512 466V548L578 592" stroke="#2563EB" stroke-width="30" stroke-linecap="round" stroke-linejoin="round"/>

  <circle cx="742" cy="414" r="50" fill="#F59E0B"/>
  <path d="M742 382V414H774" stroke="#FFFFFF" stroke-width="18" stroke-linecap="round" stroke-linejoin="round"/>
</svg>
